<svg width="28" height="13" viewBox="0 0 28 13" fill="none" xmlns="http://www.w3.org/2000/svg">
<path d="M5.79349 0.981867V11.8H3.50625V3.1529H3.44286L0.965454 4.7059V2.67749L3.64359 0.981867H5.79349ZM12.6064 12.0378C11.6978 12.0342 10.916 11.8106 10.261 11.3669C9.60952 10.9232 9.1077 10.2805 8.75555 9.43885C8.40692 8.5972 8.23436 7.58476 8.23788 6.40152C8.23788 5.22181 8.4122 4.2164 8.76083 3.38532C9.11299 2.55424 9.61481 1.92212 10.2663 1.48897C10.9213 1.0523 11.7013 0.833962 12.6064 0.833962C13.5114 0.833962 14.2897 1.0523 14.9411 1.48897C15.5961 1.92564 16.0997 2.55952 16.4519 3.3906C16.804 4.21817 16.9784 5.22181 16.9748 6.40152C16.9748 7.58828 16.7988 8.60249 16.4466 9.44414C16.098 10.2858 15.5979 10.9285 14.9464 11.3722C14.2949 11.8159 13.5149 12.0378 12.6064 12.0378ZM12.6064 10.1414C13.2261 10.1414 13.7209 9.82975 14.0907 9.20643C14.4604 8.58312 14.6436 7.64815 14.64 6.40152C14.64 5.581 14.5555 4.89782 14.3865 4.35198C14.221 3.80614 13.985 3.39588 13.6787 3.1212C13.3758 2.84652 13.0184 2.70918 12.6064 2.70918C11.9901 2.70918 11.4971 3.01732 11.1273 3.63359C10.7575 4.24986 10.5709 5.1725 10.5674 6.40152C10.5674 7.23261 10.6501 7.92635 10.8157 8.48275C10.9847 9.03564 11.2224 9.45118 11.5288 9.72938C11.8351 10.0041 12.1943 10.1414 12.6064 10.1414ZM22.8474 12.0378C21.9389 12.0342 21.1571 11.8106 20.5021 11.3669C19.8506 10.9232 19.3488 10.2805 18.9966 9.43885C18.648 8.5972 18.4754 7.58476 18.479 6.40152C18.479 5.22181 18.6533 4.2164 19.0019 3.38532C19.3541 2.55424 19.8559 1.92212 20.5074 1.48897C21.1624 1.0523 21.9424 0.833962 22.8474 0.833962C23.7525 0.833962 24.5307 1.0523 25.1822 1.48897C25.8372 1.92564 26.3408 2.55952 26.693 3.3906C27.0451 4.21817 27.2194 5.22181 27.2159 6.40152C27.2159 7.58828 27.0398 8.60249 26.6877 9.44414C26.3391 10.2858 25.839 10.9285 25.1875 11.3722C24.536 11.8159 23.756 12.0378 22.8474 12.0378ZM22.8474 10.1414C23.4672 10.1414 23.962 9.82975 24.3318 9.20643C24.7015 8.58312 24.8847 7.64815 24.8811 6.40152C24.8811 5.581 24.7966 4.89782 24.6276 4.35198C24.4621 3.80614 24.2261 3.39588 23.9198 3.1212C23.6169 2.84652 23.2595 2.70918 22.8474 2.70918C22.2312 2.70918 21.7382 3.01732 21.3684 3.63359C20.9986 4.24986 20.812 5.1725 20.8085 6.40152C20.8085 7.23261 20.8912 7.92635 21.0567 8.48275C21.2258 9.03564 21.4635 9.45118 21.7699 9.72938C22.0762 10.0041 22.4354 10.1414 22.8474 10.1414Z" fill="#19191B"/>
</svg>
