<svg width="24" height="25" viewBox="0 0 24 25" fill="none" xmlns="http://www.w3.org/2000/svg">
<path d="M8.00195 4.7981C5.79295 4.7981 4.00195 6.5891 4.00195 8.7981V16.7981C4.00195 19.0071 5.79295 20.7981 8.00195 20.7981H16.002C18.211 20.7981 20.002 19.0071 20.002 16.7981V8.7981C20.002 6.5891 18.211 4.7981 16.002 4.7981H8.00195ZM8.00195 6.7981H16.002C17.105 6.7981 18.002 7.6951 18.002 8.7981V16.7981C18.002 17.9011 17.105 18.7981 16.002 18.7981H8.00195C6.89895 18.7981 6.00195 17.9011 6.00195 16.7981V8.7981C6.00195 7.6951 6.89895 6.7981 8.00195 6.7981Z" fill="black"/>
</svg>
